<svg xmlns="http://www.w3.org/2000/svg" xmlns:xlink="http://www.w3.org/1999/xlink" width="500" zoomAndPan="magnify" viewBox="0 0 375 374.999991" height="500" preserveAspectRatio="xMidYMid meet" version="1.0"><defs><clipPath id="e20e600cb0"><path d="M 61.667969 60.71875 L 307 60.71875 L 307 298 L 61.667969 298 Z M 61.667969 60.71875 " clip-rule="nonzero"/></clipPath><clipPath id="33b774f3e4"><path d="M 82 146 L 313.667969 146 L 313.667969 314.21875 L 82 314.21875 Z M 82 146 " clip-rule="nonzero"/></clipPath></defs><path fill="#be8c63" d="M 156.230469 271.929688 L 186.273438 252.769531 L 186.273438 139.691406 L 156.230469 162.1875 L 156.230469 271.929688 " fill-opacity="1" fill-rule="nonzero"/><path fill="#be8c63" d="M 108.46875 251.765625 L 138.511719 276.722656 L 138.511719 166.035156 L 108.46875 189.109375 L 108.46875 251.765625 " fill-opacity="1" fill-rule="nonzero"/><path fill="#be8c63" d="M 203.992188 134.5 L 203.992188 234.25 L 234.035156 210.550781 L 234.035156 108.351562 L 203.992188 134.5 " fill-opacity="1" fill-rule="nonzero"/><g clip-path="url(#e20e600cb0)"><path fill="#be8c63" d="M 112.992188 272.113281 C 89.679688 251.34375 74.996094 221.117188 74.996094 187.46875 C 74.996094 124.839844 125.847656 74.066406 188.578125 74.066406 C 238.121094 74.066406 280.253906 105.738281 295.78125 149.90625 L 306.777344 141.230469 C 288.277344 94.117188 242.328125 60.75 188.578125 60.75 C 118.484375 60.75 61.660156 117.484375 61.660156 187.46875 C 61.660156 234.902344 87.761719 276.242188 126.40625 297.964844 L 112.992188 272.113281 " fill-opacity="1" fill-rule="nonzero"/></g><g clip-path="url(#33b774f3e4)"><path fill="#be8c63" d="M 313.652344 146.972656 L 142.988281 281.609375 L 82.777344 205.527344 L 139.164062 314.183594 L 313.652344 146.972656 " fill-opacity="1" fill-rule="nonzero"/></g></svg>